<svg id="Layer_1" data-name="Layer 1" xmlns="http://www.w3.org/2000/svg" viewBox="0 0 284.46 75.39"><defs><style>.cls-1{fill:#0f88ca;}.cls-2{fill:#00aabd;}.cls-3{fill:#f3f4f1;}.cls-4{fill:#f6f9eb;}.cls-5{fill:#fdf2f6;}.cls-6{fill:#f7f8f6;}.cls-7{fill:#f5f7ea;}.cls-8{fill:#e92429;}.cls-9{fill:#363592;}.cls-10{fill:#96211f;}.cls-11{fill:#a92423;}.cls-12{fill:#2c3683;}.cls-13{fill:#322965;}.cls-14{fill:#ecc02b;}.cls-15{fill:#404a9d;}.cls-16{fill:#54a4bb;}.cls-17{fill:#511847;}.cls-18{fill:#24121c;}.cls-19{fill:#2e338b;}.cls-20{fill:#2e3d25;}.cls-21{fill:#3a8941;}</style></defs><title>fabicon</title><path class="cls-1" d="M185.31,260.41h9.89c7,0,12.13,2.42,12.13,9.68,0,7-5.18,10.18-11.94,10.18h-4.51v11.54h-5.57Zm9.62,15.4c4.69,0,6.91-1.86,6.91-5.72s-2.44-5.22-7.1-5.22h-3.86v10.94Z" transform="translate(-113.77 -238.08)"/><path class="cls-1" d="M213.25,260.41h18.89v4.69H218.81v8h11.3v4.69h-11.3v9.29h13.81v4.69H213.25Z" transform="translate(-113.77 -238.08)"/><path class="cls-1" d="M239.07,260.41h5.72l9.76,17.65,3.24,6.7H258c-.27-3.25-.71-7.22-.71-10.72V260.41h5.3v31.4h-5.72l-9.75-17.68-3.25-6.67h-.19c.27,3.32.71,7.1.71,10.6v13.75h-5.3Z" transform="translate(-113.77 -238.08)"/><path class="cls-2" d="M280.16,260.41h8.37c9.62,0,15.3,5.19,15.3,15.57s-5.68,15.83-15,15.83h-8.66Zm8,26.88c6.32,0,9.95-3.59,9.95-11.31s-3.63-11.06-9.95-11.06h-2.43v22.37Z" transform="translate(-113.77 -238.08)"/><path class="cls-2" d="M308.51,276c0-10.15,5.66-16.15,13.84-16.15s13.84,6,13.84,16.15-5.66,16.4-13.84,16.4S308.51,286.14,308.51,276Zm22,0c0-7-3.18-11.31-8.12-11.31s-8.12,4.27-8.12,11.31,3.19,11.56,8.12,11.56S330.47,283,330.47,276Z" transform="translate(-113.77 -238.08)"/><path class="cls-2" d="M340.86,276c0-10.15,5.66-16.15,13.84-16.15s13.85,6,13.85,16.15-5.67,16.4-13.85,16.4S340.86,286.14,340.86,276Zm22,0c0-7-3.18-11.31-8.12-11.31s-8.12,4.27-8.12,11.31,3.19,11.56,8.12,11.56S362.82,283,362.82,276Z" transform="translate(-113.77 -238.08)"/><path class="cls-2" d="M374.86,260.41h10.58c6.53,0,11.56,2.31,11.56,9.31,0,6.75-5,9.82-11.56,9.82h-5v12.27h-5.57Zm10,14.67c4.31,0,6.65-1.78,6.65-5.36s-2.34-4.85-6.65-4.85h-4.43v10.21Zm-.47,3,4-3.32,9.8,17.08H392Z" transform="translate(-113.77 -238.08)"/><path class="cls-3" d="M174.05,289.92c.94.6.43,1.69.55,2.54.09.59.22,1,.69,1,.66.06,1,.59,1.42,1.08.17.21.49.39.32.74a.62.62,0,0,1-.68.34A12.74,12.74,0,0,0,171,296c-3.1.71-6.12-.12-9.17-.1a34,34,0,0,1-4,.24A1.68,1.68,0,0,1,157,296c-.3-.21-.49-.46-.06-.74.68-.45.74-.92,0-1.4-.48-.34-.3-.61.06-.78a1.57,1.57,0,0,1,1.76.11c.88.78,1.68.93,2.48-.08.29-.36,1.1.11,1-.88h2.13c0,.46.3.46.58.46a5.19,5.19,0,0,0,4.5.71c-.39-.37-.85-.16-1.27-.26s-.92.3-1-.31c0-.45.53-.56.93-.6h.29c.05.13.12.37.17.37,1-.11,1.92.61,2.92.56.12.7.6.38.94.46.83.21,1.09-.64,1.31-1.22.29-.78-.54-.5-.77-.83a1.35,1.35,0,0,0-.32-.26c.06-.55.41-.43.71-.46s.37,0,.34-.25-.29-.19-.47-.21l.79-.57A.32.32,0,0,1,174.05,289.92Zm-11.67,3.46a.73.73,0,0,0,1,0A.68.68,0,0,0,162.38,293.38Zm1.53-.55-.16-.09c0,.07-.07.14-.06.19s.1.06.15.09S163.89,292.89,163.91,292.83Z" transform="translate(-113.77 -238.08)"/><path class="cls-4" d="M173.28,290.35c.18,0,.43-.06.47.21s-.19.23-.34.25-.65-.09-.71.46c-.28,0-.56,0-.58.46a9.35,9.35,0,0,0-3.67.46h0c-.65-.88-1.41-.51-2.13-.21-.38.16-.72.41-1-.15s-.43-.14-.65-.13-.68.12-1-.13c.11-.53.65-.07.75-.56-.37-.59-1.21.3-1.44-.67l0-.31a.86.86,0,0,0,.91.25,9.57,9.57,0,0,0,5.69.81,11.92,11.92,0,0,0,2.48-.47c.28.28.32,0,.37-.22l.18-.07Z" transform="translate(-113.77 -238.08)"/><path class="cls-5" d="M163,290.35c.23,1,1.07.08,1.44.67-.1.49-.64,0-.75.56.31.25.66.14,1,.13s.46-.3.65.13.59.31,1,.15c.72-.3,1.48-.67,2.13.21h-.29c-.4,0-1,.15-.93.6,0,.61.62.23,1,.31s.88-.11,1.27.26a5.19,5.19,0,0,1-4.5-.71c0-.47-.3-.47-.58-.46h-2.13c0-.33,0-.66,0-1C162.18,290.48,162.49,290.28,163,290.35Z" transform="translate(-113.77 -238.08)"/><path class="cls-3" d="M172.51,290.41c0,.25-.09.5-.37.22A.27.27,0,0,1,172.51,290.41Z" transform="translate(-113.77 -238.08)"/><path class="cls-6" d="M172.12,291.73c0-.46.3-.46.58-.46a1.35,1.35,0,0,1,.32.26c.23.33,1.06.05.77.83-.22.58-.48,1.43-1.31,1.22-.34-.08-.82.24-.94-.46.06-.57-.6-.31-.67-.76.34-.29.7-.11,1-.17S172.39,292.12,172.12,291.73Z" transform="translate(-113.77 -238.08)"/><path class="cls-5" d="M172.12,291.73c.27.39,0,.42-.22.46s-.69-.12-1,.17c.07.45.73.19.67.76-1,.05-1.91-.67-2.92-.56-.05,0-.12-.24-.17-.37A9.35,9.35,0,0,1,172.12,291.73Z" transform="translate(-113.77 -238.08)"/><path class="cls-6" d="M165,290.34a.58.58,0,0,1,.86,0A.62.62,0,0,1,165,290.34Z" transform="translate(-113.77 -238.08)"/><path class="cls-6" d="M164.38,292.2c.28,0,.56,0,.58.46C164.68,292.66,164.4,292.66,164.38,292.2Z" transform="translate(-113.77 -238.08)"/><path class="cls-6" d="M166.27,289.88l-.06.16c-.05,0-.12,0-.13-.07s0-.11,0-.16Z" transform="translate(-113.77 -238.08)"/><path class="cls-7" d="M139.71,313.47V312a39.23,39.23,0,0,0,11.85,0v1.54Z" transform="translate(-113.77 -238.08)"/><path class="cls-8" d="M122.9,301.39c-6.71-7.86-9.7-17.34-9.05-28.31.68-11.26,5.15-20.14,12.91-26.88a3,3,0,0,1,1.59-.91c.77.7.59,1.88,1,2.75-1.63,3-2,6.5-2.36,9.88a70.92,70.92,0,0,0,.06,8.62l-.12,2.3a4.69,4.69,0,0,0-.87,2.23,33,33,0,0,0,2.26,16.46c-.31,1.05-.37,2.34-.95,3.1-2,2.57-2.4,5.73-2.7,8.88C124.56,301.06,124,301.46,122.9,301.39Z" transform="translate(-113.77 -238.08)"/><path class="cls-9" d="M158.39,242.91c11.74,5.59,19,19.81,18.61,33.13-.22.06-.53,0-.64.21-3,4.43-7.27,5.37-11.67,6.09-.08-3.32.73-6.65,0-10v-.54a25.77,25.77,0,0,0-4.51-11c.07-.91-.39-1.92,1.31-1.55s1.63-1.88,1.83-3.2c.18-1.16-.79-2.47-1.53-2-1.7,1.08-4,.28-5.27,2.47a1.4,1.4,0,0,1-.4-.11c.91-3.53,1.84-4.36,5.2-4.65.56-.05,1.31.23,1.51-.72.14-.7-.37-1.06-.8-1.44s-.9-1.23-1.39-1.28c-2.82-.32-3.31-4.5-6.09-4.84-.12,0-.17-.77-.25-1.19C155.75,241.74,156.84,244.51,158.39,242.91Zm.69,11-.33.23c.11.07.22.2.33.2s.22-.13.33-.2Z" transform="translate(-113.77 -238.08)"/><path class="cls-10" d="M151.56,311.93a39.23,39.23,0,0,1-11.85,0l-.5-.07-5-1.63h0l-4.58-2.51c-1.57-1.45-3.52-2.32-4.77-4.23,1.29-.41,2.1.43,2.9,1.42.42.52,1.12,1.05,1.2-.18.17-2.43,1-1.25,1.76-.54,1.11,1,4.22.52,5.29-.79h0c.69-.17,1.75.49,2-.52.4-1.51-1.21-1.35-1.79-2.47,3.61,1.28,6.91-1.08,10.43-.63-1.11-.81-2.29-.5-3.44-.6-.71-.05-1.58.25-1.75-1,2.41.68,4.78.27,7.21.05,2.18-.2,3.7-2.05,5.77-2.21.85.17,1.8-.31,2.55.52-.42,1.5.41,2.15,1.37,2.72l0,.72.36.86a2.6,2.6,0,0,1,.16,1.72,11.51,11.51,0,0,0-.08,2.86c.26,1.1-1.29,2.28.17,3.23C156.85,310.65,154.21,311.32,151.56,311.93ZM135,306.66c-.21-.67-.67-.94-1.21-.75s-1.36.09-1.21,1.11c.12.8.79.65,1.28.63A1.06,1.06,0,0,0,135,306.66Z" transform="translate(-113.77 -238.08)"/><path class="cls-11" d="M141.53,298.2c.17,1.29,1,1,1.75,1,1.15.1,2.33-.21,3.44.6-3.52-.45-6.82,1.91-10.43.63.58,1.12,2.19,1,1.79,2.47-.27,1-1.33.35-2,.52-.64-1.81-1.53-.91-2.36-.79l0,.78h2.42c-1.07,1.31-4.18,1.78-5.29.79-.78-.71-1.59-1.89-1.76.54-.08,1.23-.78.7-1.2.18-.8-1-1.61-1.83-2.9-1.42a6.72,6.72,0,0,1-2-2.15c1.14.07,1.66-.33,1.8-1.88.3-3.15.72-6.31,2.7-8.88.58-.76.64-2.05.95-3.1,1.42,1.55,2.16,3.85,4,4.92a9,9,0,0,0,3.31,3.05C137.58,296.62,139.64,297.13,141.53,298.2Z" transform="translate(-113.77 -238.08)"/><path class="cls-12" d="M158.39,242.91c-1.55,1.6-2.64-1.17-4.09-.58-1.61-.49-1.41,1.17-1.83,2.08-.57.17-1.56-.42-1.58.7a1.53,1.53,0,0,0,1.58,1.42c.06.72.39,1.06,1,1s.74-.46.8-1c1-.64,2.18-.44,2.54.61.43,1.27-.73,1.42-1.58,1.51-.39,0-.81.17-.86.68-.16,1.5-1.08,1.46-2,1.41-1.71-.11-2.88.77-3.55,2.58l-1.37-.11c-3-1.48-4.09-5-5.92-7.74,1.62-4.55,4.62-6.05,8.67-5.25C153.26,239.74,155.9,241,158.39,242.91Z" transform="translate(-113.77 -238.08)"/><path class="cls-13" d="M141.53,245.47c1.83,2.74,2.88,6.26,5.92,7.74A20.79,20.79,0,0,0,137.23,255c-1.2-.06-1.48-1.36-2.14-2.14,0-1.4-1-2.21-1.55-3.27s-.76,0-1.12.12h0c.23-1.18-.48-1.91-.94-2.8-.95-1.81-.3-3.37,1.47-3.42,1.37,0,1.7-1.06,2.09-2.16l.6-.12A17,17,0,0,0,141.53,245.47Z" transform="translate(-113.77 -238.08)"/><path class="cls-14" d="M158.45,300c0-.24,0-.48,0-.72l.21-2.14.52-.62a19,19,0,0,0,11.66-.34l.52.05c-2.38,5.41-6,9.26-10.91,11.4-.2-1.8,0-3.75-1.46-5.05a2.6,2.6,0,0,0-.16-1.72Z" transform="translate(-113.77 -238.08)"/><path class="cls-15" d="M164.69,282.34c4.4-.72,8.71-1.66,11.67-6.09.11-.16.42-.15.64-.21a18.76,18.76,0,0,1-.53,5.93c-.37.2-.31.52-.19.86a2.68,2.68,0,0,0-.12.3c-2.43,1.95-4.6,4.35-7.23,6a39.57,39.57,0,0,0-4.76-6.28Z" transform="translate(-113.77 -238.08)"/><path class="cls-16" d="M168.93,289.14c2.63-1.66,4.8-4.06,7.23-6a8.47,8.47,0,0,1-1.28,4.87c-.77,1.3-1,3.05-1.46,4.59a6.73,6.73,0,0,1-2.08,3.64l-.52-.05c.22-2.53-.81-4.54-2-6.46Z" transform="translate(-113.77 -238.08)"/><path class="cls-15" d="M141.53,245.47a17,17,0,0,1-5.89-4.29c3.81-1.35,7.65-2.4,11.67-2,1.05.1,2.13,0,2.89,1.07C146.15,239.42,143.15,240.92,141.53,245.47Z" transform="translate(-113.77 -238.08)"/><path class="cls-17" d="M135,241.3c-.39,1.1-.72,2.13-2.09,2.16-1.77,0-2.42,1.61-1.47,3.42.46.89,1.17,1.62.94,2.8-1.35.28-1.74-1.81-3-1.65-.44-.86-.26-2-1-2.74C130.63,244.07,132.4,241.69,135,241.3Z" transform="translate(-113.77 -238.08)"/><path class="cls-7" d="M167.23,305.92c1-.58,2.1-.14,2.86-1.11a.78.78,0,0,1,1.35.22,1.44,1.44,0,0,1-.15,1.45C170.3,308.18,168.74,308,167.23,305.92Z" transform="translate(-113.77 -238.08)"/><path class="cls-7" d="M151.78,238.73a5.25,5.25,0,0,1,4.11-.43c.48.11,1.11.42,1,1.17-.14,1-.93.8-1.46.69C154.18,239.89,153.2,238.69,151.78,238.73Z" transform="translate(-113.77 -238.08)"/><path class="cls-11" d="M159,302.58c1.46,1.3,1.26,3.25,1.46,5.05-.7-.08-.56,1.31-1.37,1-1.46-.95.09-2.13-.17-3.23A11.51,11.51,0,0,1,159,302.58Z" transform="translate(-113.77 -238.08)"/><path class="cls-7" d="M129.69,307.77l4.58,2.51A3.89,3.89,0,0,1,129.69,307.77Z" transform="translate(-113.77 -238.08)"/><path class="cls-7" d="M176.39,259c1.24,1.61.33,2.36-.8,3.17C174.83,260.66,175.81,259.94,176.39,259Z" transform="translate(-113.77 -238.08)"/><path class="cls-7" d="M134.26,310.27l5,1.63C137.47,311.7,135.47,312.59,134.26,310.27Z" transform="translate(-113.77 -238.08)"/><path class="cls-16" d="M176.28,282.83c-.12-.34-.18-.66.19-.86C176.55,282.3,176.62,282.63,176.28,282.83Z" transform="translate(-113.77 -238.08)"/><path class="cls-18" d="M137.23,255c-4.41,2.65-7.48,6.87-10.15,11.57a70.92,70.92,0,0,1-.06-8.62c.38-3.38.73-6.86,2.36-9.88,1.3-.17,1.69,1.92,3,1.64h0a5.85,5.85,0,0,0,2.67,3.15C135.75,253.61,136,254.91,137.23,255Z" transform="translate(-113.77 -238.08)"/><path class="cls-7" d="M127,268.84c.91,1.25.54,2.48.39,4-.37,3.7-1.78,7.78,1.26,11,.4.42.31.83.36,1.35a5.08,5.08,0,0,0,2.06,4,3,3,0,0,1,1.34,3.27c-1.86-1.07-2.6-3.37-4-4.92a33,33,0,0,1-2.26-16.46A4.69,4.69,0,0,1,127,268.84Z" transform="translate(-113.77 -238.08)"/><path class="cls-19" d="M156.13,256.45c-2.13-2-4.86-2.13-7.31-3.13.67-1.81,1.84-2.69,3.55-2.58.94,0,1.86.09,2-1.41.05-.51.47-.63.86-.68.85-.09,2-.24,1.58-1.51-.36-1-1.53-1.25-2.54-.61h0c.21-1.63-.4-2.32-1.8-2.09v0c.42-.91.22-2.57,1.83-2.08.09.42.14,1.18.26,1.19,2.78.34,3.27,4.52,6.09,4.84.49,0,.91.86,1.39,1.28s.94.74.8,1.44c-.2.95-1,.67-1.51.72C158,252.09,157,252.92,156.13,256.45Z" transform="translate(-113.77 -238.08)"/><path class="cls-19" d="M160.19,260.84c-.87-1.82-2.56-2.71-3.66-4.28,1.25-2.19,3.57-1.39,5.27-2.47.74-.47,1.71.84,1.53,2-.2,1.32-.09,3.59-1.83,3.2S160.26,259.93,160.19,260.84Z" transform="translate(-113.77 -238.08)"/><path class="cls-7" d="M164.69,272.37c-.92,1.68.15,3.73-.72,5.55-1.08-2.84-.75-5.35.73-6.09Z" transform="translate(-113.77 -238.08)"/><path class="cls-19" d="M159.08,253.94l.33.23c-.11.07-.22.2-.33.2s-.22-.13-.33-.2Z" transform="translate(-113.77 -238.08)"/><path class="cls-20" d="M154.51,296l3.37-2.67a6,6,0,0,0,1.28,3.15c-.17.21-.35.41-.53.62l-1.57-.58C156.31,295.73,155.36,296.21,154.51,296Z" transform="translate(-113.77 -238.08)"/><path class="cls-11" d="M135,306.66a1.06,1.06,0,0,1-1.14,1c-.49,0-1.16.17-1.28-.63-.15-1,.7-.94,1.21-1.11S134.76,306,135,306.66Z" transform="translate(-113.77 -238.08)"/><path class="cls-11" d="M157.06,296.56l1.57.58c-.06.71-.13,1.42-.2,2.14C157.47,298.71,156.64,298.06,157.06,296.56Z" transform="translate(-113.77 -238.08)"/><path class="cls-11" d="M158.45,300l.36.86Z" transform="translate(-113.77 -238.08)"/><path class="cls-10" d="M136.07,303.45h-2.42l0-.78c.83-.12,1.72-1,2.36.79Z" transform="translate(-113.77 -238.08)"/><path class="cls-19" d="M152.47,246.53a1.53,1.53,0,0,1-1.58-1.42c0-1.12,1-.53,1.58-.7v2.11Z" transform="translate(-113.77 -238.08)"/><path class="cls-19" d="M154.29,246.53c-.06.55-.24,1-.8,1s-1-.29-1-1h1.82Z" transform="translate(-113.77 -238.08)"/><path class="cls-17" d="M135.09,252.83a5.85,5.85,0,0,1-2.67-3.15c.36-.1.54-1.16,1.12-.12S135.06,251.43,135.09,252.83Z" transform="translate(-113.77 -238.08)"/><path class="cls-21" d="M159.16,296.52a6,6,0,0,1-1.28-3.15l.48-.55.34.21-.1-.36.09,0a3.85,3.85,0,0,0,2.87,0c2.54-.55,4.81-2,7.21-2.94,1.24,1.92,2.27,3.93,2,6.46A19,19,0,0,1,159.16,296.52Z" transform="translate(-113.77 -238.08)"/><path class="cls-20" d="M168.77,289.72c-2.4,1-4.67,2.39-7.21,2.94a3.85,3.85,0,0,1-2.87,0,31.92,31.92,0,0,0,5.48-9.79,39.57,39.57,0,0,1,4.76,6.28Z" transform="translate(-113.77 -238.08)"/><path class="cls-7" d="M159.35,263.47c.64.71,1.92.82,2.13,2.24a.65.65,0,0,1-.91.76c-.88-.55-2.09-.74-2.42-2C158,263.79,158.61,263.48,159.35,263.47Z" transform="translate(-113.77 -238.08)"/><path class="cls-7" d="M156.85,258.17c-1.23,1.22-2.08,2.27-3.46,1.05-.43-.37-1.07-.43-.71-1.23.25-.55.92-1,1.32-.6C154.77,258.23,155.66,258.08,156.85,258.17Z" transform="translate(-113.77 -238.08)"/><path class="cls-20" d="M158.6,292.67l.1.36-.34-.21Q158.4,292.58,158.6,292.67Z" transform="translate(-113.77 -238.08)"/><path class="cls-9" d="M154.28,246.52h-1.8v-2.09C153.88,244.2,154.49,244.89,154.28,246.52Z" transform="translate(-113.77 -238.08)"/></svg>